<svg width="25" height="25" viewBox="0 0 25 25" fill="none" xmlns="http://www.w3.org/2000/svg">
<path fill-rule="evenodd" clip-rule="evenodd" d="M21.875 12.5C21.875 17.6777 17.6777 21.875 12.5 21.875C7.32233 21.875 3.125 17.6777 3.125 12.5C3.125 7.32233 7.32233 3.125 12.5 3.125C17.6777 3.125 21.875 7.32233 21.875 12.5ZM7.62623 17.3738C7.2357 16.9832 7.2357 16.3501 7.62623 15.9596L11.0858 12.5L7.62623 9.04044C7.2357 8.64991 7.2357 8.01675 7.62623 7.62623C8.01675 7.2357 8.64991 7.2357 9.04044 7.62623L12.5 11.0858L15.9596 7.62622C16.3501 7.2357 16.9832 7.2357 17.3738 7.62622C17.7643 8.01675 17.7643 8.64991 17.3738 9.04044L13.9142 12.5L17.3738 15.9596C17.7643 16.3501 17.7643 16.9832 17.3738 17.3738C16.9832 17.7643 16.3501 17.7643 15.9596 17.3738L12.5 13.9142L9.04044 17.3738C8.64992 17.7643 8.01675 17.7643 7.62623 17.3738Z" fill="#E63946"/>
</svg>
