<svg width="25" height="25" viewBox="0 0 25 25" fill="none" xmlns="http://www.w3.org/2000/svg">
<path d="M4.63611 14.4878L11.8784 21.2912L11.8784 21.2912C12.1418 21.5386 12.2734 21.6622 12.4307 21.6842C12.4767 21.6907 12.5233 21.6907 12.5693 21.6842C12.7266 21.6622 12.8582 21.5386 13.1216 21.2912L20.3639 14.4878C22.4016 12.5736 22.649 9.42362 20.9352 7.21473L20.613 6.7994C18.5628 4.15694 14.4475 4.6001 13.0069 7.61847C12.8034 8.04483 12.1965 8.04483 11.993 7.61847C10.5525 4.6001 6.4372 4.15694 4.38701 6.7994L4.06477 7.21474C2.35098 9.42362 2.59843 12.5736 4.63611 14.4878Z" fill="black" stroke="black" stroke-width="2"/>
</svg>
